<svg width="153" height="160" fill="none" xmlns="http://www.w3.org/2000/svg"><path d="M95.51 19.404C77.959-2.87 45.55-6.54 23.45 11.376 2.268 28.544-1.566 59.743 14.84 81.523c14.683 19.488 40.495 25.376 61.659 15.788a4.368 4.368 0 015.23 1.269l3.345 4.246a2.833 2.833 0 01-.472 3.98 4.97 4.97 0 00-.826 6.986l34.911 44.312a4.97 4.97 0 006.986.826l18.459-14.544a4.97 4.97 0 00.826-6.987l-34.91-44.311a4.971 4.971 0 00-6.987-.826 2.832 2.832 0 01-3.98-.471l-3.344-4.247a4.368 4.368 0 01-.006-5.387c14.043-18.046 14.567-43.98-.221-62.753zm-60.565 47.72c-8.953-11.366-6.999-27.841 4.369-36.794 11.367-8.953 27.842-6.999 36.795 4.368 8.953 11.368 6.998 27.843-4.369 36.796s-27.842 6.998-36.795-4.37z" fill="#F1F7FF"/><path d="M1.733 21.342h16.813M4.037 24.378L1 21.342l3.037-3.031M7.853 107.881l-.093 2.909M8.097 100.324l-.093 2.909M10.256 105.63l2.908.093M2.698 105.391l2.91.093M143.55 67.33l-.558 4.141M144.993 56.555l-.553 4.142M147.308 64.46l4.142.553M136.534 63.012l4.142.558M22.507 121.471a2.577 2.577 0 100-5.154 2.577 2.577 0 000 5.154z" stroke="#02286F" stroke-width="1.701" stroke-miterlimit="10" stroke-linecap="round" stroke-linejoin="round"/><path d="M96.952 146.451H44.52c-3.805 0-7.79-5.841-6.906-9.622L61.978 31.295c.884-3.781 5.794-7.737 9.604-7.737h50.135c3.805 0 9.75 5.096 8.866 8.877L105.452 139.61c-.885 3.775-4.695 6.841-8.5 6.841z" fill="#1E87FF"/><path d="M93.491 141.338H42.938c-3.74 0-6.062-3.031-5.19-6.778L62.084 30.777C62.96 27.037 66.708 24 70.448 24h50.554c3.741 0 6.062 3.03 5.189 6.777L101.857 134.56c-.879 3.747-4.625 6.778-8.366 6.778z" fill="#fff" stroke="#1E87FF" stroke-width="1.701" stroke-miterlimit="10"/><path d="M76.359 24.006l-1.286 5.498c-.489 2.088.721 3.78 2.71 3.78h31.549c1.984 0 3.991-1.692 4.485-3.78l1.286-5.498H76.359z" fill="#1E87FF"/><path d="M94.561 127.76l-44.62.157c-1.814 0-3.152-1.786-2.722-3.636l4.218-18.185c.308-1.315 1.431-2.24 2.723-2.24l44.62-.157c1.814 0 3.152 1.786 2.722 3.636l-4.218 18.185c-.308 1.315-1.431 2.24-2.723 2.24z" stroke="#E6F0FF" stroke-width="1.701" stroke-miterlimit="10"/><path d="M57.61 112.012l37.667-.192M56.306 118.324l19.68-.098M70.262 52.116l37.668-.192M68.959 58.428l19.68-.1" stroke="#E6F0FF" stroke-width="1.701" stroke-miterlimit="10" stroke-linecap="round" stroke-linejoin="round"/><path d="M101.281 97.51l-44.62.156c-1.815 0-3.153-1.786-2.723-3.636l4.218-18.185c.308-1.315 1.431-2.24 2.723-2.24l44.619-.157c1.815 0 3.153 1.786 2.723 3.636l-4.218 18.185c-.308 1.315-1.431 2.24-2.722 2.24z" fill="#E6F0FF" stroke="#E6F0FF" stroke-width="1.701" stroke-miterlimit="10"/><path d="M108.64 67.706l-44.62.157c-1.815 0-3.153-1.785-2.722-3.635l4.217-18.186c.309-1.315 1.431-2.24 2.723-2.24l44.62-.157c1.815 0 3.153 1.786 2.722 3.636l-4.218 18.186c-.308 1.314-1.431 2.24-2.722 2.24z" stroke="#E6F0FF" stroke-width="1.701" stroke-miterlimit="10"/><path d="M90.775 88.952l-47.337.552c-1.925.018-3.362-1.82-2.915-3.74l4.323-18.855c.314-1.36 1.5-2.327 2.868-2.338l47.336-.553c1.926-.017 3.363 1.821 2.915 3.74l-4.323 18.855c-.314 1.361-1.5 2.327-2.867 2.339z" fill="#FC0"/><path d="M81.635 79.632l-3.618.087M75.765 71.75c1.338 2.937.727 6.044-.971 9.243M83.794 79.58l3.583-7.092M91.24 72.39l-2.106.052M57.557 80.225l3.612-.087M65.12 72.017c-1.967 3.02-2.007 6.108-.972 9.244M55.393 80.284l-2.1-6.958M49.424 73.425l2.112-.052M67.243 74.21l.57 1.437M70.192 74.524l.576 1.431M69.203 80.354c2.682-.78 4.037-2.566 4.084-5.364" stroke="#02286F" stroke-width="1.701" stroke-miterlimit="10" stroke-linecap="round" stroke-linejoin="round"/></svg>
